<svg width="32" height="32" fill="none" xmlns="http://www.w3.org/2000/svg"><path d="M30.867 18.671c-.01.057-.027-.05 0 0a15.28 15.28 0 0 0 .252-2.745c0-2.045-.4-4.029-1.188-5.896a15.09 15.09 0 0 0-3.239-4.815A15.046 15.046 0 0 0 16.009.78c-.961 0-1.924.09-2.861.271l-.007.001A8.94 8.94 0 0 0 8.946 0C6.556 0 4.31.933 2.62 2.627A8.92 8.92 0 0 0 0 8.967c0 1.525.391 3.024 1.125 4.348a15.31 15.31 0 0 0-.227 2.61c0 2.046.4 4.029 1.188 5.897a15.076 15.076 0 0 0 3.237 4.814 15.027 15.027 0 0 0 4.804 3.245 14.955 14.955 0 0 0 5.882 1.192c.888 0 1.777-.08 2.646-.235A8.92 8.92 0 0 0 23.056 32a8.869 8.869 0 0 0 6.324-2.626 8.915 8.915 0 0 0 2.62-6.34c0-1.53-.393-3.033-1.133-4.363ZM16.07 25.202c-5.368 0-7.77-2.646-7.77-4.628 0-1.017.75-1.73 1.782-1.73 2.297 0 1.702 3.306 5.988 3.306 2.195 0 3.406-1.194 3.406-2.416 0-.735-.362-1.55-1.807-1.907l-4.774-1.195c-3.846-.966-4.543-3.05-4.543-5.01 0-4.066 3.82-5.593 7.407-5.593 3.305 0 7.2 1.83 7.2 4.27 0 1.046-.903 1.654-1.935 1.654-1.96 0-1.6-2.72-5.549-2.72-1.96 0-3.045.89-3.045 2.162 0 1.27 1.548 1.677 2.891 1.984l3.535.786c3.871.865 4.852 3.13 4.852 5.264 0 3.305-2.53 5.773-7.638 5.773Z" fill="#0B7572"/></svg>