<svg width="32" height="20" fill="none" xmlns="http://www.w3.org/2000/svg"><path d="M2.341 0c-.46 0-.882.136-1.243.36L14.95 11.912c.634.53 1.49.53 2.122 0L30.903.361A2.345 2.345 0 0 0 29.658 0H2.34ZM.134 1.55C.051 1.788 0 2.041 0 2.308v15.384c0 .464.141.89.378 1.25l9.915-8.906L.134 1.55Zm31.732 0-10.134 8.474 9.89 8.918c.237-.36.378-.786.378-1.25V2.308c0-.267-.05-.52-.134-.758Zm-11.33 9.484-2.463 2.055a3.235 3.235 0 0 1-4.134 0l-2.451-2.043-9.842 8.846c.22.067.452.108.695.108h27.317c.244 0 .475-.04.696-.108l-9.817-8.858Z" fill="#0B7572"/></svg>