<svg width="24" height="33" fill="none" xmlns="http://www.w3.org/2000/svg"><path d="M11.331 6.909 7.866.899C6.986-.629 5.458.253 5.458.253L3.321 1.49l5.228 9.066 2.137-1.236c1.526-.882.645-2.41.645-2.41Zm8.88 25.613-5.227-9.066c-1.29.745-2.474-.632-3.563-2.11a33.977 33.977 0 0 1-3.581-6.212c-.734-1.682-1.288-3.425-.044-4.144L2.568 1.924C.726 2.99-2.938 8.66 4.348 21.294v.001c7.307 12.673 14.022 12.292 15.864 11.227Zm3.536-4.081-3.465-6.01c-.881-1.528-2.408-.645-2.408-.645l-2.137 1.235 5.228 9.066 2.137-1.235c1.526-.883.645-2.412.645-2.412Z" fill="#0B7572"/></svg>