<svg width="67" height="82" fill="none" xmlns="http://www.w3.org/2000/svg"><path d="M56.614 10.294C50.687 4.367 42.502.703 33.456.703c-9.047 0-17.232 3.664-23.16 9.59C4.37 16.222.707 24.408.707 33.454c0 9.047 3.663 17.232 9.59 23.159 5.928 5.927 14.113 9.591 23.16 9.591 9.045 0 17.231-3.665 23.158-9.591 5.928-5.928 9.591-14.113 9.592-23.159 0-9.046-3.664-17.232-9.592-23.16Z" fill="#fff"/><path d="M0 33.456C0 14.977 14.979 0 33.455 0v.703c-9.045 0-17.23 3.665-23.159 9.593C4.369 16.224.703 24.41.703 33.456c0 9.045 3.666 17.23 9.593 23.158 5.928 5.928 14.114 9.593 23.159 9.593 9.045 0 17.23-3.665 23.16-9.593 5.927-5.927 9.592-14.113 9.592-23.158 0-9.046-3.665-17.232-9.593-23.16C50.686 4.368 42.5.703 33.455.703V0C51.932 0 66.91 14.977 66.91 33.456c0 18.476-14.978 33.454-33.455 33.454C14.979 66.91 0 51.932 0 33.457Z" fill="#C5C9CC"/><path d="m33.456 23.905.226-.063c-11.25 3.491-20.152 9.473-20.334 13.866-.196 4.701 9.67 5.804 22.03 2.464 12.36-3.34 22.542-9.862 22.738-14.563.1-2.437-2.502-3.907-6.752-4.293 5.195.232 8.448 1.746 8.448 4.45 0 5.151-11.803 12.674-26.357 16.799-14.554 4.125-26.357 3.29-26.357-1.861 0-5.152 11.803-12.674 26.358-16.8Z" fill="#A0A4A7"/><path d="m12.262 50.994 36.54-35.078-3.313 27.575-6.041-6.918-27.186 14.421Z" fill="#E63F3F"/><path d="M2.353 76.862c.645 0 1.1-.101 1.366-.329.266-.215.405-.582.405-1.088 0-.961-.607-1.442-1.834-1.442H1.63v2.86h.722Zm-.026.595h-.696v3.277h-.67v-7.326h1.265c.81 0 1.443.151 1.923.468.469.303.696.822.696 1.518 0 .81-.227 1.342-.696 1.632-.468.291-1.075.43-1.822.43Zm7.1 2.898a3.12 3.12 0 0 0 1.631-.43c.494-.279.874-.67 1.152-1.152.291-.494.43-1.037.43-1.645 0-.531-.114-1.037-.354-1.544a3.142 3.142 0 0 0-1.088-1.252c-.481-.33-1.063-.494-1.747-.494-.48 0-.974.114-1.48.355-.494.24-.911.607-1.24 1.1-.33.494-.494 1.101-.494 1.785 0 .582.127 1.126.392 1.62.279.493.658.898 1.152 1.189a2.977 2.977 0 0 0 1.645.468Zm0 .57a4.333 4.333 0 0 1-1.924-.444 3.477 3.477 0 0 1-1.443-1.329c-.354-.582-.544-1.278-.544-2.088 0-.772.19-1.442.57-2.024a3.76 3.76 0 0 1 1.48-1.33 4.1 4.1 0 0 1 1.91-.467c.583 0 1.102.1 1.57.303a3.5 3.5 0 0 1 1.215.823c.354.341.62.76.81 1.227.19.494.278.987.278 1.519 0 .759-.165 1.43-.52 2.012a3.526 3.526 0 0 1-1.429 1.329c-.595.316-1.253.468-1.974.468Zm8.68-7.087c-.633 0-1.203.14-1.67.405a2.67 2.67 0 0 0-1.089 1.126c-.266.507-.392 1.076-.392 1.721 0 1 .29 1.797.86 2.379.57.582 1.329.873 2.265.873.81 0 1.595-.29 2.341-.873v.772a4.264 4.264 0 0 1-1.1.48 4.33 4.33 0 0 1-1.279.178 4.872 4.872 0 0 1-1.733-.317c-.57-.215-1.063-.607-1.468-1.176-.418-.557-.62-1.316-.62-2.278 0-.696.14-1.341.405-1.936.253-.582.683-1.05 1.265-1.405.595-.367 1.341-.544 2.227-.544.823 0 1.62.253 2.366.785l-.025.721a5.498 5.498 0 0 0-.962-.633c-.38-.19-.835-.278-1.392-.278Zm3.467 6.896v-7.326h.67v3.43l3.303-3.43h.873l-3.467 3.518 3.644 3.809h-.962l-3.391-3.708v3.708h-.67Zm9.502-.38a3.15 3.15 0 0 0 1.633-.43 3.14 3.14 0 0 0 1.15-1.151c.28-.494.431-1.037.431-1.645 0-.531-.126-1.037-.354-1.544a3.238 3.238 0 0 0-1.088-1.252c-.494-.33-1.063-.494-1.747-.494-.493 0-.987.114-1.48.355-.506.24-.924.607-1.253 1.1-.329.494-.493 1.101-.493 1.785 0 .582.139 1.126.404 1.62.266.493.646.898 1.152 1.189.481.316 1.038.468 1.645.468Zm0 .57a4.333 4.333 0 0 1-1.923-.443 3.478 3.478 0 0 1-1.442-1.329c-.367-.582-.544-1.278-.544-2.088 0-.772.19-1.442.556-2.024.38-.57.873-1.013 1.48-1.33a4.152 4.152 0 0 1 1.924-.467c.582 0 1.101.1 1.57.303.467.19.872.469 1.214.823.341.341.607.76.797 1.227.19.494.29.987.29 1.519 0 .759-.176 1.43-.53 2.012a3.494 3.494 0 0 1-1.417 1.329c-.596.316-1.253.468-1.975.468Zm8.68-7.086c-.645 0-1.201.14-1.682.405a2.744 2.744 0 0 0-1.088 1.126c-.253.507-.38 1.076-.38 1.721 0 1 .279 1.797.86 2.379.57.582 1.316.873 2.253.873.822 0 1.607-.29 2.354-.873l-.013.772a4.257 4.257 0 0 1-1.1.48 4.274 4.274 0 0 1-1.279.178c-.57 0-1.151-.101-1.733-.317-.57-.215-1.05-.607-1.455-1.176-.418-.557-.62-1.316-.62-2.278 0-.696.126-1.341.392-1.936a3.106 3.106 0 0 1 1.278-1.405c.582-.367 1.328-.544 2.227-.544.822 0 1.607.253 2.353.785l-.012.721a5.623 5.623 0 0 0-.974-.633c-.367-.19-.836-.278-1.38-.278ZM46.629 81l-2.569-5.859-.557 5.593h-.683l1-7.643 2.809 6.53 2.91-6.53.95 7.643h-.697l-.531-5.593L46.628 81Zm8.275-.645c.595 0 1.139-.14 1.62-.43.493-.279.873-.67 1.164-1.152a3.278 3.278 0 0 0 .418-1.645 3.53 3.53 0 0 0-.355-1.544 3.142 3.142 0 0 0-1.088-1.252c-.48-.33-1.063-.494-1.746-.494-.481 0-.975.114-1.468.355-.506.24-.924.607-1.253 1.1-.329.494-.493 1.101-.493 1.785 0 .582.126 1.126.404 1.62.266.493.646.898 1.14 1.189a2.99 2.99 0 0 0 1.657.468Zm0 .57a4.389 4.389 0 0 1-1.936-.444 3.636 3.636 0 0 1-1.443-1.329c-.354-.582-.53-1.278-.53-2.088 0-.772.176-1.442.556-2.024.38-.57.873-1.013 1.48-1.33a4.102 4.102 0 0 1 1.911-.467c.582 0 1.114.1 1.57.303a3.673 3.673 0 0 1 2.024 2.05c.19.494.29.987.29 1.519 0 .759-.176 1.43-.53 2.012a3.45 3.45 0 0 1-1.43 1.329 4.118 4.118 0 0 1-1.962.468Zm8.68-7.087c-.645 0-1.201.14-1.682.405a2.742 2.742 0 0 0-1.088 1.126 3.788 3.788 0 0 0-.392 1.721c0 1 .29 1.797.86 2.379.582.582 1.329.873 2.265.873.81 0 1.594-.29 2.354-.873l-.013.772a4.258 4.258 0 0 1-1.1.48 4.273 4.273 0 0 1-1.279.178 4.924 4.924 0 0 1-1.733-.317c-.57-.215-1.063-.607-1.468-1.176-.405-.557-.62-1.316-.62-2.278 0-.696.139-1.341.405-1.936a3.107 3.107 0 0 1 1.278-1.405c.582-.367 1.328-.544 2.227-.544.822 0 1.607.253 2.353.785l-.025.721a5.07 5.07 0 0 0-.962-.633c-.367-.19-.835-.278-1.38-.278Z" fill="#A0A4A7" stroke="#A0A4A7" stroke-width=".216" stroke-miterlimit="2.414"/></svg>