<svg width="119" height="57" fill="none" xmlns="http://www.w3.org/2000/svg"><path d="M36.52 37.166h7.504v2.451h-3.57v17.228H36.52v-19.68ZM48.473 49.457l.675-9.84h.225l.675 9.84h-1.575Zm-4.356 7.388h3.852l.364-5.226h1.855l.366 5.226h3.85l-2.051-19.68h-6.185l-2.051 19.68ZM60.039 49.957v3.71c0 .5.387.646.613.646.37 0 .629-.307.629-.646v-4.58c0-.614-.113-1.291-1.58-1.291h-1.598v-2.162h1.662c1.113 0 1.516-.258 1.516-1.468v-3.903a.633.633 0 0 0-.63-.646c-.225 0-.612.13-.612.646v3.21h-3.936v-2.791c0-1.371.161-3.517 2.92-3.517h3.258c2.759 0 2.936 2.146 2.936 3.517v3.146c0 2.145-1.5 2.726-2.678 2.677v.194c2.646-.065 2.678 1.968 2.678 2.661v3.969c0 1.387-.177 3.516-2.936 3.516h-3.258c-2.759 0-2.92-2.13-2.92-3.516v-3.372h3.936ZM67.798 37.166h9.114v19.68h-3.936V39.616h-1.242v17.228h-3.936v-19.68ZM83.429 47.99v-8.373h.516c.42 0 .726.355.726.984v6.404c0 .63-.307.984-.726.984h-.516Zm-3.936 8.855h3.936v-6.694h2.258c2.742 0 2.92-2.13 2.92-3.517v-5.952c0-1.371-.178-3.517-2.92-3.517h-6.194v19.68ZM96.365 53.667a.633.633 0 0 1-.629.646c-.225 0-.613-.146-.613-.646V40.263c0-.517.388-.646.613-.646.371 0 .63.307.63.646v13.404Zm-5.177-.338c0 1.387.177 3.516 2.92 3.516h3.274c2.742 0 2.919-2.13 2.919-3.516V40.682c0-1.371-.177-3.517-2.92-3.517h-3.274c-2.742 0-2.92 2.146-2.92 3.517v12.647ZM113.109 37.166h5.13v19.68h-3.936v-12.34h-.145l-2.033 12.34h-3.145l-2.017-12.34h-.145v12.34h-3.936v-19.68h5.114l2.564 13.84 2.549-13.84ZM31.42 10.26C30.215 4.983 27.195.693 26.779 0c-.658.984-3.067 4.775-4.29 8.969-1.338 4.694-1.535 8.856-1.074 12.937.459 4.097 2.19 8.307 2.19 8.307.919 2.194 2.296 4.565 3.193 5.727 1.315-1.71 4.336-6.808 5.278-13.454.524-3.71.547-6.952-.656-12.227Zm-4.641 24.357c-.592-1.113-1.512-3.226-1.599-6.517-.022-3.162 1.247-5.888 1.618-6.452.33.564 1.425 2.935 1.555 6.178.089 3.161-.963 5.662-1.574 6.79Zm4.29-15.405c-.044 2.016-.285 4.145-.591 5.42.11-2.194-.154-5.275-.657-7.695-.503-2.403-1.928-6.436-3.065-8.29-1.05 1.774-2.343 5.258-3.021 8.274-.68 3.017-.7 6.678-.7 7.775-.18-.92-.632-4.226-.505-7.533.107-2.726.745-5.549 1.095-6.84 1.336-4.306 2.847-7.065 3.131-7.5.284.435 2.188 3.839 3.175 7.404.982 3.565 1.18 6.985 1.139 8.985Z" fill="#0079C2"/><path d="M28.823 37.165h-9.161v6.146c.008 0 .014-.016.022-.016a5.524 5.524 0 0 1 7.819 0c2.158 2.145 2.158 5.646 0 7.807-.01.017-.02.017-.029.033-.011 0-.023.016-.032.032a11.032 11.032 0 0 1-7.78 3.194c-2.826 0-5.652-1.065-7.807-3.226-3.8-3.791-4.25-9.679-1.354-13.97.39-.58.84-1.129 1.354-1.645 2.155-2.162 4.98-3.226 7.807-3.226V17.518C8.802 17.518 0 26.31 0 37.165 0 48.021 8.803 56.83 19.662 56.83c5.662 0 10.762-2.404 14.35-6.227V37.165h-5.19Z" fill="#0079C2"/></svg>