<svg width="88" height="88" fill="none" xmlns="http://www.w3.org/2000/svg"><circle cx="44" cy="44" r="44" fill="#E9E9EC"/><path fill-rule="evenodd" clip-rule="evenodd" d="M24.516 31.912A24.12 24.12 0 0 0 19.8 46.28a24.12 24.12 0 0 0 4.716 14.368c2.69-.991 5.686-1.783 8.903-2.331.38-.063.76-.127 1.14-.18-.739-3.544-1.15-7.574-1.15-11.846 0-1.973.084-3.893.253-5.74l-.813 1.32-5.76-9.083a40.835 40.835 0 0 1-2.573-.865v-.01ZM33.683 59.889c-2.922.496-5.654 1.203-8.112 2.078a21.38 21.38 0 0 0 2.036 2.11 24.07 24.07 0 0 0 12.258 6.045c-1.35-1.361-2.553-3.365-3.534-5.876-.538-1.372-1.013-2.901-1.424-4.557a42.39 42.39 0 0 0-1.224.2ZM36.52 59.477c.38 1.52.823 2.923 1.319 4.189 1.646 4.209 3.83 6.814 6.171 6.814 2.342 0 4.526-2.605 6.172-6.815a34.413 34.413 0 0 0 1.318-4.188 63.492 63.492 0 0 0-7.48-.443c-2.584 0-5.084.148-7.479.444h-.02ZM35.023 46.27c0 4.21.41 8.176 1.139 11.625a65.226 65.226 0 0 1 15.697 0c.728-3.46 1.14-7.416 1.14-11.625s-.412-8.175-1.14-11.625a64.81 64.81 0 0 1-14.653.116l-.98 1.593-.539.876c-.432 2.795-.664 5.844-.664 9.05v-.01ZM38.134 33.242c1.9.18 3.861.264 5.866.264a61.17 61.17 0 0 0 7.48-.444 34.413 34.413 0 0 0-1.32-4.188c-1.645-4.209-3.829-6.814-6.17-6.814-.697 0-1.383.232-2.047.675.031.2.052.411.063.622v.042c0 .021 0 .053.01.074.011.106.022.211.022.317v.401c0 1.856-.77 3.903-1.741 5.475l-2.184 3.565.021.01ZM51.67 28.294c.537 1.371 1.012 2.901 1.424 4.557.411-.063.822-.126 1.223-.2 2.922-.496 5.655-1.203 8.113-2.078a24.203 24.203 0 0 0-14.284-8.165c1.35 1.36 2.553 3.365 3.534 5.875l-.01.01ZM53.442 34.423c.738 3.545 1.15 7.575 1.15 11.847 0 4.272-.412 8.302-1.15 11.847.38.053.76.116 1.14.18 3.217.548 6.213 1.339 8.903 2.33A24.12 24.12 0 0 0 68.2 46.26a24.12 24.12 0 0 0-4.715-14.368c-2.69.992-5.686 1.783-8.904 2.332-.38.063-.76.126-1.14.18v.02ZM53.094 59.699a35.186 35.186 0 0 1-1.425 4.557c-.98 2.5-2.173 4.515-3.533 5.876a24.079 24.079 0 0 0 12.247-6.044 24.145 24.145 0 0 0 2.036-2.12c-2.458-.877-5.19-1.573-8.112-2.08-.401-.073-.813-.136-1.224-.2l.01.011ZM35.276 25.414a3.62 3.62 0 0 1-5.127 0 3.62 3.62 0 0 1-1.066-2.563c0-1.002.401-1.91 1.066-2.564a3.62 3.62 0 0 1 2.563-1.065c1.002 0 1.91.4 2.564 1.065a3.62 3.62 0 0 1 0 5.127Zm-.36 10-.062.096.063-.095Zm5.508-11.91v.022-.021Zm-13.166-4.768a7.702 7.702 0 0 0-2.268 5.465c0 1.297.707 3.101 1.74 5.053.011.01.022.021.043.032a.736.736 0 0 1 .137.179l.696 1.097c.01.01.01.021.021.032l5.222 8.228 1.119-1.814c.02-.032.042-.074.063-.106l.844-1.371.063-.106 4.04-6.582c.897-1.804 1.498-3.44 1.498-4.631v-.327c0-.064-.01-.148-.02-.254 0-.02 0-.042-.011-.074v-.02a7.723 7.723 0 0 0-2.237-4.769 7.702 7.702 0 0 0-5.464-2.268 7.702 7.702 0 0 0-5.465 2.268l-.02-.032Z" fill="#0B7572"/></svg>