<svg width="52" height="52" fill="none" xmlns="http://www.w3.org/2000/svg"><circle cx="26" cy="26" r="26" fill="#E9E9EC"/><path fill-rule="evenodd" clip-rule="evenodd" d="M39.142 18.096H12.863A1.164 1.164 0 0 0 11.7 19.26v18.769a1.165 1.165 0 0 0 1.163 1.163h26.28c.316 0 .61-.129.816-.34.211-.212.34-.5.34-.823v-18.77a1.164 1.164 0 0 0-1.157-1.163ZM26.55 30.302v6.029a.55.55 0 0 1-.546.546.55.55 0 0 1-.547-.546V30.3a1.497 1.497 0 0 1 .547-2.891 1.497 1.497 0 0 1 .546 2.892Z" fill="#0B7572"/><path fill-rule="evenodd" clip-rule="evenodd" d="M37.668 20.412a11.637 11.637 0 0 0-3.415-7.892 11.641 11.641 0 0 0-8.25-3.42c-3.22 0-6.14 1.304-8.25 3.42a11.637 11.637 0 0 0-3.414 7.892h23.329Zm-2.474-2.145a9.428 9.428 0 0 0-2.457-4.225 9.488 9.488 0 0 0-6.734-2.791 9.488 9.488 0 0 0-6.734 2.79 9.46 9.46 0 0 0-2.456 4.226h18.38Z" fill="#0B7572"/></svg>