<svg width="88" height="88" fill="none" xmlns="http://www.w3.org/2000/svg"><circle cx="44" cy="44" r="44" fill="#E9E9EC"/><path fill-rule="evenodd" clip-rule="evenodd" d="M28.785 56.92h7.592c.5 0 .904.404.904.904v7.593c0 .5-.404.903-.904.903h-7.593a.903.903 0 0 1-.903-.903v-7.593c0-.5.404-.904.904-.904Zm30.19-10.602h-13.92a.903.903 0 1 1 0-1.808h13.92a.903.903 0 1 1 0 1.808ZM37.844 27.92l-7.104 7.104a.904.904 0 0 1-1.436-.17l-2.148-3.723a.906.906 0 0 1 .33-1.233.906.906 0 0 1 1.234.33l1.563 2.711 6.285-6.284a.905.905 0 0 1 1.276 0c.35.35.35.925 0 1.276v-.011ZM33.208 16.5H22.904c-.5 0-.904.404-.904.904v52.638c0 .5.404.904.904.904h41.111c.5 0 .904-.404.904-.904V17.404c0-.5-.404-.904-.904-.904H53.711v4.924c0 .5-.404.903-.904.903H34.112a.903.903 0 0 1-.904-.903V16.5Zm10.943 45.12c0-.5.404-.904.904-.904h13.92a.903.903 0 1 1 0 1.808h-13.92a.903.903 0 0 1-.904-.904ZM37.845 42.5l-7.104 7.104a.904.904 0 0 1-1.436-.17l-2.148-3.722a.906.906 0 0 1 .33-1.234.906.906 0 0 1 1.234.33l1.563 2.711 6.285-6.284a.905.905 0 0 1 1.276 0c.35.35.35.925 0 1.276v-.01Zm7.21-10.761a.903.903 0 1 1 0-1.808h13.92a.903.903 0 1 1 0 1.808h-13.92Z" fill="#0B7572"/><path fill-rule="evenodd" clip-rule="evenodd" d="M52.807 16.532H34.112v4.892h18.695v-4.892Z" fill="#0B7572"/></svg>