<svg width="52" height="52" fill="none" xmlns="http://www.w3.org/2000/svg"><circle cx="26" cy="26" r="26" fill="#E9E9EC"/><path fill-rule="evenodd" clip-rule="evenodd" d="M17.009 33.635h4.487c.295 0 .534.238.534.534v4.486a.534.534 0 0 1-.534.534h-4.487a.534.534 0 0 1-.534-.534V34.17c0-.296.239-.534.534-.534Zm17.84-6.265h-8.226a.534.534 0 1 1 0-1.069h8.226a.534.534 0 1 1 0 1.069ZM22.363 16.499l-4.198 4.197a.534.534 0 0 1-.848-.1l-1.27-2.2a.536.536 0 0 1 .195-.729.536.536 0 0 1 .73.195l.923 1.603 3.714-3.714a.535.535 0 0 1 .754 0 .535.535 0 0 1 0 .754v-.006Zm-2.74-6.749h-6.089a.534.534 0 0 0-.534.534V41.39c0 .295.239.534.534.534h24.293a.534.534 0 0 0 .534-.534V10.284a.534.534 0 0 0-.534-.534h-6.089v2.91a.534.534 0 0 1-.534.534H20.157a.534.534 0 0 1-.534-.535V9.75Zm6.466 26.662c0-.295.239-.534.534-.534h8.226a.534.534 0 1 1 0 1.068h-8.226a.534.534 0 0 1-.534-.534Zm-3.726-11.298-4.198 4.197a.534.534 0 0 1-.848-.1l-1.27-2.2a.536.536 0 0 1 .195-.729.536.536 0 0 1 .73.195l.923 1.603 3.714-3.714a.535.535 0 0 1 .754 0 .535.535 0 0 1 0 .754v-.006Zm4.26-6.36a.534.534 0 1 1 0-1.068h8.226a.534.534 0 1 1 0 1.069h-8.226Z" fill="#0B7572"/><path fill-rule="evenodd" clip-rule="evenodd" d="M31.204 9.769H20.157v2.89h11.047V9.77Z" fill="#0B7572"/></svg>