<svg width="88" height="88" fill="none" xmlns="http://www.w3.org/2000/svg"><circle cx="44" cy="44" r="44" fill="#E9E9EC"/><path fill-rule="evenodd" clip-rule="evenodd" d="M30.293 30.293A19.334 19.334 0 0 1 44 24.612c5.35 0 10.2 2.174 13.707 5.681A19.334 19.334 0 0 1 63.388 44c0 5.35-2.174 10.2-5.68 13.707A19.334 19.334 0 0 1 44 63.388c-5.35 0-10.2-2.174-13.707-5.68A19.334 19.334 0 0 1 24.612 44c0-5.35 2.174-10.2 5.681-13.707ZM68.2 44a24.126 24.126 0 0 0-7.09-17.11A24.126 24.126 0 0 0 44 19.8a24.126 24.126 0 0 0-17.11 7.09A24.126 24.126 0 0 0 19.8 44a24.126 24.126 0 0 0 7.09 17.11A24.126 24.126 0 0 0 44 68.2a24.126 24.126 0 0 0 17.11-7.09A24.126 24.126 0 0 0 68.2 44Z" fill="#0B7572"/><path fill-rule="evenodd" clip-rule="evenodd" d="M38.404 38.489c0-1.72.605-3.11 1.824-4.17.813-.718 2.023-1.152 3.62-1.313v-1.153h1.428v1.153c1.4.132 2.515.548 3.337 1.229 1.059.87 1.692 2.08 1.9 3.61l-2.495.379c-.142-.945-.435-1.673-.89-2.174-.443-.501-1.067-.841-1.852-1.002v6.957c1.21.303 2.023.549 2.41.719.747.33 1.362.728 1.834 1.2.473.473.842 1.04 1.097 1.692.255.653.388 1.362.388 2.118 0 1.673-.54 3.063-1.598 4.188-1.059 1.125-2.439 1.72-4.13 1.796v2.439h-1.428v-2.41c-1.21-.152-2.184-.426-2.94-.814-.756-.388-1.409-1.02-1.957-1.881-.548-.87-.87-1.928-.955-3.176l2.43-.454c.189 1.295.52 2.25.992 2.855.68.86 1.494 1.333 2.44 1.437v-7.676c-.994-.19-2.005-.577-3.045-1.154a4.488 4.488 0 0 1-1.777-1.786c-.416-.756-.624-1.617-.624-2.59l-.01-.02Zm23.368 5.51a17.68 17.68 0 0 0-5.209-12.562A17.718 17.718 0 0 0 44 26.228a17.68 17.68 0 0 0-12.563 5.209A17.718 17.718 0 0 0 26.228 44a17.68 17.68 0 0 0 5.209 12.563A17.718 17.718 0 0 0 44 61.772a17.68 17.68 0 0 0 12.563-5.209A17.718 17.718 0 0 0 61.772 44Z" fill="#0B7572"/><path fill-rule="evenodd" clip-rule="evenodd" d="M43.849 41.693V35.02c-.936.141-1.683.52-2.222 1.124-.538.605-.813 1.324-.813 2.165 0 .823.227 1.513.69 2.061.464.558 1.239 1.002 2.336 1.323h.009ZM48.51 47.885c0-.87-.218-1.579-.653-2.108-.435-.53-1.305-1.011-2.6-1.427v7.345a3.564 3.564 0 0 0 2.326-1.22c.614-.7.917-1.56.917-2.59h.01Z" fill="#0B7572"/></svg>