<svg width="32" height="32" fill="none" xmlns="http://www.w3.org/2000/svg"><path fill-rule="evenodd" clip-rule="evenodd" d="M16 0C7.156 0 0 7.152 0 16c0 3.337 1.018 6.423 2.825 9.075a.8.8 0 0 1 .1.688L1.3 31.2l5.325-1.837a.8.8 0 0 1 .688.087A15.904 15.904 0 0 0 16 32c8.848 0 16-7.152 16-16 0-8.848-7.152-16-16-16ZM9.45 6.975l2.913 4.813-1.213 1.2a.8.8 0 0 0-.125.962c1.85 3.204 4.043 5.697 7.112 7.05a.8.8 0 0 0 .888-.163l1.288-1.287 4.7 2.938c-.52 1.17-1.2 1.868-1.976 2.274-.898.471-1.996.56-3.25.3-2.505-.52-5.533-2.489-8-5.012-2.466-2.523-4.375-5.591-4.862-8.088-.243-1.248-.136-2.322.325-3.174.397-.734 1.07-1.362 2.2-1.813Z" fill="#0B7572"/></svg>