<svg width="88" height="88" fill="none" xmlns="http://www.w3.org/2000/svg"><circle cx="44" cy="44" r="44" fill="#E9E9EC"/><path fill-rule="evenodd" clip-rule="evenodd" d="M66.241 30.625H21.769a1.97 1.97 0 0 0-1.969 1.969v31.763a1.97 1.97 0 0 0 1.97 1.969H66.24a1.93 1.93 0 0 0 1.382-.577c.358-.358.577-.845.577-1.392V32.594a1.97 1.97 0 0 0-1.959-1.969ZM44.93 51.28v10.203a.93.93 0 0 1-.925.925.93.93 0 0 1-.925-.925V51.28a2.534 2.534 0 0 1 .925-4.893 2.534 2.534 0 0 1 .925 4.893Z" fill="#0B7572"/><path fill-rule="evenodd" clip-rule="evenodd" d="M63.745 34.543a19.693 19.693 0 0 0-5.778-13.355A19.7 19.7 0 0 0 44.005 15.4a19.659 19.659 0 0 0-13.962 5.788 19.692 19.692 0 0 0-5.778 13.355h39.48Zm-4.187-3.63a15.954 15.954 0 0 0-4.157-7.15 16.057 16.057 0 0 0-11.396-4.723c-4.296 0-8.364 1.69-11.397 4.723a16.008 16.008 0 0 0-4.156 7.15h31.106Z" fill="#0B7572"/></svg>