<svg width="52" height="52" fill="none" xmlns="http://www.w3.org/2000/svg"><circle cx="26" cy="26" r="26" fill="#E9E9EC"/><path fill-rule="evenodd" clip-rule="evenodd" d="M17.9 17.9a11.424 11.424 0 0 1 8.1-3.357c3.162 0 6.027 1.285 8.1 3.358a11.425 11.425 0 0 1 3.357 8.1c0 3.16-1.285 6.026-3.357 8.099a11.424 11.424 0 0 1-8.1 3.357 11.424 11.424 0 0 1-8.1-3.357 11.425 11.425 0 0 1-3.357-8.1c0-3.161 1.285-6.027 3.357-8.1ZM40.3 26c0-3.95-1.603-7.524-4.19-10.11A14.257 14.257 0 0 0 26 11.7c-3.95 0-7.524 1.603-10.11 4.19A14.256 14.256 0 0 0 11.7 26c0 3.95 1.603 7.525 4.19 10.11A14.257 14.257 0 0 0 26 40.3c3.95 0 7.524-1.603 10.11-4.19A14.256 14.256 0 0 0 40.3 26Z" fill="#0B7572"/><path fill-rule="evenodd" clip-rule="evenodd" d="M22.694 22.743c0-1.016.358-1.837 1.078-2.463.48-.425 1.195-.682 2.14-.777v-.681h.843v.681c.827.079 1.486.324 1.972.727.625.514 1 1.229 1.122 2.133l-1.474.224c-.084-.559-.257-.989-.525-1.285-.263-.296-.631-.497-1.095-.592v4.111c.715.179 1.195.324 1.424.425.442.195.805.43 1.084.71.28.279.497.614.648.999.15.386.229.804.229 1.251 0 .989-.318 1.81-.944 2.475-.626.665-1.441 1.017-2.441 1.061v1.441h-.843V31.76c-.715-.09-1.29-.251-1.738-.48-.447-.23-.832-.604-1.156-1.112-.324-.514-.514-1.14-.564-1.877l1.435-.268c.112.765.308 1.33.587 1.687.402.508.882.788 1.441.849v-4.536c-.587-.111-1.184-.34-1.799-.681a2.652 2.652 0 0 1-1.05-1.056c-.246-.447-.369-.955-.369-1.53l-.005-.012ZM36.502 26c0-2.9-1.173-5.525-3.078-7.424a10.47 10.47 0 0 0-7.423-3.078c-2.9 0-5.525 1.173-7.424 3.078A10.47 10.47 0 0 0 15.5 26c0 2.899 1.173 5.524 3.078 7.424a10.47 10.47 0 0 0 7.424 3.077c2.899 0 5.524-1.173 7.424-3.077A10.47 10.47 0 0 0 36.502 26Z" fill="#0B7572"/><path fill-rule="evenodd" clip-rule="evenodd" d="M25.912 24.637v-3.944c-.553.084-.995.308-1.313.665-.319.358-.48.782-.48 1.28 0 .485.134.893.407 1.217.274.33.732.592 1.38.782h.006ZM28.666 28.296c0-.514-.129-.933-.386-1.246-.257-.313-.77-.598-1.536-.844v4.34a2.106 2.106 0 0 0 1.374-.72c.363-.413.542-.921.542-1.53h.006Z" fill="#0B7572"/></svg>