<svg width="52" height="52" fill="none" xmlns="http://www.w3.org/2000/svg"><circle cx="26" cy="26" r="26" fill="#E9E9EC"/><path fill-rule="evenodd" clip-rule="evenodd" d="M14.486 18.857a14.253 14.253 0 0 0-2.786 8.49c0 3.18 1.035 6.116 2.786 8.49 1.59-.585 3.36-1.053 5.261-1.377.225-.037.45-.075.674-.106-.437-2.094-.68-4.476-.68-7 0-1.166.05-2.3.15-3.392l-.48.78-3.404-5.367a24.189 24.189 0 0 1-1.52-.512v-.006ZM19.903 35.389c-1.727.293-3.342.71-4.794 1.228.374.443.773.86 1.203 1.247a14.223 14.223 0 0 0 7.243 3.572c-.797-.805-1.508-1.989-2.088-3.473a21.809 21.809 0 0 1-.841-2.693c-.244.038-.487.075-.723.119ZM21.58 35.146c.225.898.486 1.727.78 2.475.972 2.487 2.262 4.026 3.646 4.026s2.674-1.54 3.647-4.026c.293-.748.554-1.578.779-2.475a37.514 37.514 0 0 0-8.84 0h-.012ZM20.695 27.341c0 2.488.243 4.831.673 6.87a38.534 38.534 0 0 1 9.276 0c.43-2.045.673-4.382.673-6.87 0-2.487-.243-4.83-.673-6.87a38.534 38.534 0 0 1-8.659.07l-.58.94-.318.518a35.182 35.182 0 0 0-.392 5.349v-.007ZM22.534 19.643c1.122.106 2.281.156 3.466.156 1.527 0 3.004-.088 4.42-.262a20.361 20.361 0 0 0-.78-2.475c-.972-2.487-2.263-4.027-3.647-4.027-.411 0-.816.137-1.209.4.019.117.031.242.038.367v.025c0 .012 0 .031.006.043.006.063.012.125.012.188v.236c0 1.098-.455 2.307-1.028 3.236l-1.29 2.107.012.006ZM30.531 16.72c.318.81.598 1.713.841 2.692.244-.037.487-.075.724-.118a28.628 28.628 0 0 0 4.793-1.228 14.302 14.302 0 0 0-8.44-4.825c.798.804 1.508 1.988 2.088 3.472l-.006.006ZM31.579 20.341c.436 2.095.68 4.476.68 7 0 2.525-.244 4.906-.68 7 .224.032.449.07.673.107 1.901.324 3.672.791 5.261 1.377a14.253 14.253 0 0 0 2.787-8.49c0-3.179-1.035-6.115-2.787-8.49-1.59.586-3.36 1.053-5.26 1.378-.225.037-.45.074-.674.106v.012ZM31.374 35.277a20.806 20.806 0 0 1-.842 2.693c-.58 1.477-1.284 2.668-2.088 3.472a14.228 14.228 0 0 0 7.237-3.572c.424-.393.83-.81 1.203-1.253-1.452-.517-3.066-.929-4.793-1.228-.237-.044-.48-.081-.723-.119l.006.007ZM20.845 15.017a2.139 2.139 0 0 1-3.03 0 2.14 2.14 0 0 1 0-3.03 2.14 2.14 0 0 1 3.03 0 2.139 2.139 0 0 1 0 3.03Zm-.212 5.91-.038.056.038-.056Zm3.254-7.038v.013-.013Zm-7.78-2.817c-.829.829-1.34 1.97-1.34 3.229 0 .766.418 1.832 1.028 2.986a.088.088 0 0 0 .025.018.434.434 0 0 1 .081.106l.412.648c.006.007.006.013.012.02l3.086 4.861.66-1.072c.013-.018.026-.043.038-.062l.499-.81.037-.063 2.388-3.89c.53-1.066.885-2.032.885-2.736v-.193c0-.038-.006-.088-.013-.15 0-.013 0-.025-.006-.044v-.012a4.563 4.563 0 0 0-1.321-2.818 4.552 4.552 0 0 0-3.23-1.34c-1.259 0-2.4.511-3.229 1.34l-.012-.018Z" fill="#0B7572"/></svg>